<svg version="1.1" xmlns="http://www.w3.org/2000/svg" xmlns:xlink="http://www.w3.org/1999/xlink" width="1648.9443359375" height="805"><defs/><g><g transform="translate(10,2) scale(1,1)"><rect fill="#C0C0C0" stroke="none" x="991" y="87" width="103.66259765625" height="117" opacity="0.2"/></g><g transform="translate(10,2) scale(1,1)"><rect fill="#ffffff" stroke="none" x="984" y="80" width="103.66259765625" height="117"/></g><g transform="translate(10,2) scale(1,1)"><path fill="none" stroke="#000000" d="M 984 80 L 1087.66259765625 80 L 1087.66259765625 197 L 984 197 L 984 80 Z Z" stroke-miterlimit="10"/></g><g transform="translate(10,2) scale(1,1)"><path fill="none" stroke="#000000" d="M 984 105 L 1087.66259765625 105" stroke-miterlimit="10"/></g><g transform="translate(10,2) scale(1,1)"><path fill="none" stroke="#000000" d="M 984 188 L 1087.66259765625 188" stroke-miterlimit="10"/></g><g transform="translate(10,2) scale(1,1)"><g><path fill="none" stroke="none"/><text fill="#000000" stroke="none" font-family="Arial" font-size="13px" font-style="normal" font-weight="bold" text-decoration="none" x="1011.621337890625" y="99.5">Persona</text></g></g><g transform="translate(10,2) scale(1,1)"><g><path fill="none" stroke="none"/><text fill="#000000" stroke="none" font-family="Arial" font-size="13px" font-style="normal" font-weight="normal" text-decoration="none" x="989" y="122.5">-Id: String</text></g></g><g transform="translate(10,2) scale(1,1)"><g><path fill="none" stroke="none"/><text fill="#000000" stroke="none" font-family="Arial" font-size="13px" font-style="normal" font-weight="normal" text-decoration="none" x="989" y="137.5">-Nombre: String</text></g></g><g transform="translate(10,2) scale(1,1)"><g><path fill="none" stroke="none"/><text fill="#000000" stroke="none" font-family="Arial" font-size="13px" font-style="normal" font-weight="normal" text-decoration="none" x="989" y="152.5">-Telefono: String</text></g></g><g transform="translate(10,2) scale(1,1)"><g><path fill="none" stroke="none"/><text fill="#000000" stroke="none" font-family="Arial" font-size="13px" font-style="normal" font-weight="normal" text-decoration="none" x="989" y="167.5">-Correo: String</text></g></g><g transform="translate(10,2) scale(1,1)"><g><path fill="none" stroke="none"/><text fill="#000000" stroke="none" font-family="Arial" font-size="13px" font-style="normal" font-weight="normal" text-decoration="none" x="989" y="182.5">-Cedula: String</text></g></g><g transform="translate(10,2) scale(1,1)"><rect fill="#C0C0C0" stroke="none" x="815" y="279" width="103" height="80" opacity="0.2"/></g><g transform="translate(10,2) scale(1,1)"><rect fill="#ffffff" stroke="none" x="808" y="272" width="103" height="80"/></g><g transform="translate(10,2) scale(1,1)"><path fill="none" stroke="#000000" d="M 808 272 L 911 272 L 911 352 L 808 352 L 808 272 Z Z" stroke-miterlimit="10"/></g><g transform="translate(10,2) scale(1,1)"><path fill="none" stroke="#000000" d="M 808 297 L 911 297" stroke-miterlimit="10"/></g><g transform="translate(10,2) scale(1,1)"><path fill="none" stroke="#000000" d="M 808 307 L 911 307" stroke-miterlimit="10"/></g><g transform="translate(10,2) scale(1,1)"><g><path fill="none" stroke="none"/><text fill="#000000" stroke="none" font-family="Arial" font-size="13px" font-style="normal" font-weight="bold" text-decoration="none" x="839.266845703125" y="291.5">Cliente</text></g></g><g transform="translate(10,2) scale(1,1)"><rect fill="#C0C0C0" stroke="none" x="991" y="295" width="103" height="64" opacity="0.2"/></g><g transform="translate(10,2) scale(1,1)"><rect fill="#ffffff" stroke="none" x="984" y="288" width="103" height="64"/></g><g transform="translate(10,2) scale(1,1)"><path fill="none" stroke="#000000" d="M 984 288 L 1087 288 L 1087 352 L 984 352 L 984 288 Z Z" stroke-miterlimit="10"/></g><g transform="translate(10,2) scale(1,1)"><path fill="none" stroke="#000000" d="M 984 313 L 1087 313" stroke-miterlimit="10"/></g><g transform="translate(10,2) scale(1,1)"><path fill="none" stroke="#000000" d="M 984 323 L 1087 323" stroke-miterlimit="10"/></g><g transform="translate(10,2) scale(1,1)"><g><path fill="none" stroke="none"/><text fill="#000000" stroke="none" font-family="Arial" font-size="13px" font-style="normal" font-weight="bold" text-decoration="none" x="995.40185546875" y="307.5">Administrador</text></g></g><g transform="translate(10,2) scale(1,1)"><rect fill="#C0C0C0" stroke="none" x="1231" y="175" width="103" height="72" opacity="0.2"/></g><g transform="translate(10,2) scale(1,1)"><rect fill="#ffffff" stroke="none" x="1224" y="168" width="103" height="72"/></g><g transform="translate(10,2) scale(1,1)"><path fill="none" stroke="#000000" d="M 1224 168 L 1327 168 L 1327 240 L 1224 240 L 1224 168 Z Z" stroke-miterlimit="10"/></g><g transform="translate(10,2) scale(1,1)"><path fill="none" stroke="#000000" d="M 1224 193 L 1327 193" stroke-miterlimit="10"/></g><g transform="translate(10,2) scale(1,1)"><path fill="none" stroke="#000000" d="M 1224 216 L 1327 216" stroke-miterlimit="10"/></g><g transform="translate(10,2) scale(1,1)"><g><path fill="none" stroke="none"/><text fill="#000000" stroke="none" font-family="Arial" font-size="13px" font-style="normal" font-weight="bold" text-decoration="none" x="1246.23095703125" y="187.5">Empleado</text></g></g><g transform="translate(10,2) scale(1,1)"><g><path fill="none" stroke="none"/><text fill="#000000" stroke="none" font-family="Arial" font-size="13px" font-style="normal" font-weight="normal" text-decoration="none" x="1229" y="210.5">-Cargo: String</text></g></g><g transform="translate(10,2) scale(1,1)"><path fill="none" stroke="#000000" d="M 1035 198 L 1035 287" stroke-miterlimit="10"/></g><g transform="translate(10,2) scale(1,1)"><path fill="#FFFFFF" stroke="none" d="M 1026.580964487968 266.6746502847517 L 1035 287 L 1043.419035512032 266.6746502847517"/></g><g transform="translate(10,2) scale(1,1)"><path fill="none" stroke="#000000" d="M 1026.580964487968 266.6746502847517 L 1035 287 L 1043.419035512032 266.6746502847517 L 1026.580964487968 266.6746502847517" stroke-miterlimit="10"/></g><g transform="translate(10,2) scale(1,1)"><path fill="none" stroke="#000000" d="M 1024 197 L 1024 240 L 864 240 L 864 272" stroke-miterlimit="10"/></g><g transform="translate(10,2) scale(1,1)"><path fill="#FFFFFF" stroke="none" d="M 855.580964487968 251.6746502847517 L 864 272 L 872.419035512032 251.6746502847517"/></g><g transform="translate(10,2) scale(1,1)"><path fill="none" stroke="#000000" d="M 855.580964487968 251.6746502847517 L 864 272 L 872.419035512032 251.6746502847517 L 855.580964487968 251.6746502847517" stroke-miterlimit="10"/></g><g transform="translate(10,2) scale(1,1)"><path fill="none" stroke="#000000" d="M 1048 197 L 1048 240 L 1120 240 L 1120 120 L 1272 120 L 1272 168" stroke-miterlimit="10"/></g><g transform="translate(10,2) scale(1,1)"><path fill="#FFFFFF" stroke="none" d="M 1263.580964487968 147.6746502847517 L 1272 168 L 1280.419035512032 147.6746502847517"/></g><g transform="translate(10,2) scale(1,1)"><path fill="none" stroke="#000000" d="M 1263.580964487968 147.6746502847517 L 1272 168 L 1280.419035512032 147.6746502847517 L 1263.580964487968 147.6746502847517" stroke-miterlimit="10"/></g><g transform="translate(10,2) scale(1,1)"><rect fill="#C0C0C0" stroke="none" x="815" y="543" width="154.60888671875" height="95" opacity="0.2"/></g><g transform="translate(10,2) scale(1,1)"><rect fill="#ffffff" stroke="none" x="808" y="536" width="154.60888671875" height="95"/></g><g transform="translate(10,2) scale(1,1)"><path fill="none" stroke="#000000" d="M 808 536 L 962.60888671875 536 L 962.60888671875 631 L 808 631 L 808 536 Z Z" stroke-miterlimit="10"/></g><g transform="translate(10,2) scale(1,1)"><path fill="none" stroke="#000000" d="M 808 561 L 962.60888671875 561" stroke-miterlimit="10"/></g><g transform="translate(10,2) scale(1,1)"><path fill="none" stroke="#000000" d="M 808 614 L 962.60888671875 614" stroke-miterlimit="10"/></g><g transform="translate(10,2) scale(1,1)"><g><path fill="none" stroke="none"/><text fill="#000000" stroke="none" font-family="Arial" font-size="13px" font-style="normal" font-weight="bold" text-decoration="none" x="873.745361328125" y="555.5">Cita</text></g></g><g transform="translate(10,2) scale(1,1)"><g><path fill="none" stroke="none"/><text fill="#000000" stroke="none" font-family="Arial" font-size="13px" font-style="normal" font-weight="normal" text-decoration="none" x="813" y="578.5">-Id: String</text></g></g><g transform="translate(10,2) scale(1,1)"><g><path fill="none" stroke="none"/><text fill="#000000" stroke="none" font-family="Arial" font-size="13px" font-style="normal" font-weight="normal" text-decoration="none" x="813" y="593.5">-FechaCita: Date</text></g></g><g transform="translate(10,2) scale(1,1)"><g><path fill="none" stroke="none"/><text fill="#000000" stroke="none" font-family="Arial" font-size="13px" font-style="normal" font-weight="normal" text-decoration="none" x="813" y="608.5">-FechaRealizacion: Date</text></g></g><g transform="translate(10,2) scale(1,1)"><rect fill="#C0C0C0" stroke="none" x="7" y="343" width="111" height="127" opacity="0.2"/></g><g transform="translate(10,2) scale(1,1)"><rect fill="#ffffff" stroke="none" x="0" y="336" width="111" height="127"/></g><g transform="translate(10,2) scale(1,1)"><path fill="none" stroke="#000000" d="M 0 336 L 111 336 L 111 463 L 0 463 L 0 336 Z Z" stroke-miterlimit="10"/></g><g transform="translate(10,2) scale(1,1)"><path fill="none" stroke="#000000" d="M 0 361 L 111 361" stroke-miterlimit="10"/></g><g transform="translate(10,2) scale(1,1)"><path fill="none" stroke="#000000" d="M 0 429 L 111 429" stroke-miterlimit="10"/></g><g transform="translate(10,2) scale(1,1)"><g><path fill="none" stroke="none"/><text fill="#000000" stroke="none" font-family="Arial" font-size="13px" font-style="normal" font-weight="bold" text-decoration="none" x="32.3818359375" y="355.5">Servicio</text></g></g><g transform="translate(10,2) scale(1,1)"><g><path fill="none" stroke="none"/><text fill="#000000" stroke="none" font-family="Arial" font-size="13px" font-style="normal" font-weight="normal" text-decoration="none" x="5" y="378.5">-Nombre: String</text></g></g><g transform="translate(10,2) scale(1,1)"><g><path fill="none" stroke="none"/><text fill="#000000" stroke="none" font-family="Arial" font-size="13px" font-style="normal" font-weight="normal" text-decoration="none" x="5" y="393.5">-Id: String</text></g></g><g transform="translate(10,2) scale(1,1)"><g><path fill="none" stroke="none"/><text fill="#000000" stroke="none" font-family="Arial" font-size="13px" font-style="normal" font-weight="normal" text-decoration="none" x="5" y="408.5">-Duración</text></g></g><g transform="translate(10,2) scale(1,1)"><g><path fill="none" stroke="none"/><text fill="#000000" stroke="none" font-family="Arial" font-size="13px" font-style="normal" font-weight="normal" text-decoration="none" x="5" y="423.5">-Precio: Long</text></g></g><g transform="translate(10,2) scale(1,1)"><rect fill="#C0C0C0" stroke="none" x="223" y="367" width="102.21533203125" height="95" opacity="0.2"/></g><g transform="translate(10,2) scale(1,1)"><rect fill="#ffffff" stroke="none" x="216" y="360" width="102.21533203125" height="95"/></g><g transform="translate(10,2) scale(1,1)"><path fill="none" stroke="#000000" d="M 216 360 L 318.21533203125 360 L 318.21533203125 455 L 216 455 L 216 360 Z Z" stroke-miterlimit="10"/></g><g transform="translate(10,2) scale(1,1)"><path fill="none" stroke="#000000" d="M 216 385 L 318.21533203125 385" stroke-miterlimit="10"/></g><g transform="translate(10,2) scale(1,1)"><path fill="none" stroke="#000000" d="M 216 423 L 318.21533203125 423" stroke-miterlimit="10"/></g><g transform="translate(10,2) scale(1,1)"><g><path fill="none" stroke="none"/><text fill="#000000" stroke="none" font-family="Arial" font-size="13px" font-style="normal" font-weight="bold" text-decoration="none" x="230.97998046875" y="379.5">DetalleCorte</text></g></g><g transform="translate(10,2) scale(1,1)"><g><path fill="none" stroke="none"/><text fill="#000000" stroke="none" font-family="Arial" font-size="13px" font-style="normal" font-weight="normal" text-decoration="none" x="221" y="402.5">-Id: String</text></g></g><g transform="translate(10,2) scale(1,1)"><g><path fill="none" stroke="none"/><text fill="#000000" stroke="none" font-family="Arial" font-size="13px" font-style="normal" font-weight="normal" text-decoration="none" x="221" y="417.5">-ValorSubTotal</text></g></g><g transform="translate(10,2) scale(1,1)"><rect fill="#C0C0C0" stroke="none" x="439" y="343" width="147.37890625" height="103" opacity="0.2"/></g><g transform="translate(10,2) scale(1,1)"><rect fill="#ffffff" stroke="none" x="432" y="336" width="147.37890625" height="103"/></g><g transform="translate(10,2) scale(1,1)"><path fill="none" stroke="#000000" d="M 432 336 L 579.37890625 336 L 579.37890625 439 L 432 439 L 432 336 Z Z" stroke-miterlimit="10"/></g><g transform="translate(10,2) scale(1,1)"><path fill="none" stroke="#000000" d="M 432 361 L 579.37890625 361" stroke-miterlimit="10"/></g><g transform="translate(10,2) scale(1,1)"><path fill="none" stroke="#000000" d="M 432 414 L 579.37890625 414" stroke-miterlimit="10"/></g><g transform="translate(10,2) scale(1,1)"><g><path fill="none" stroke="none"/><text fill="#000000" stroke="none" font-family="Arial" font-size="13px" font-style="normal" font-weight="bold" text-decoration="none" x="489.794921875" y="355.5">Corte</text></g></g><g transform="translate(10,2) scale(1,1)"><g><path fill="none" stroke="none"/><text fill="#000000" stroke="none" font-family="Arial" font-size="13px" font-style="normal" font-weight="normal" text-decoration="none" x="437" y="378.5">-Id: String</text></g></g><g transform="translate(10,2) scale(1,1)"><g><path fill="none" stroke="none"/><text fill="#000000" stroke="none" font-family="Arial" font-size="13px" font-style="normal" font-weight="normal" text-decoration="none" x="437" y="393.5">-Forma de Pago: String</text></g></g><g transform="translate(10,2) scale(1,1)"><g><path fill="none" stroke="none"/><text fill="#000000" stroke="none" font-family="Arial" font-size="13px" font-style="normal" font-weight="normal" text-decoration="none" x="437" y="408.5">-ValorTotal: Long</text></g></g><g transform="translate(10,2) scale(1,1)"><rect fill="#C0C0C0" stroke="none" x="1503" y="431" width="132.9443359375" height="167" opacity="0.2"/></g><g transform="translate(10,2) scale(1,1)"><rect fill="#ffffff" stroke="none" x="1496" y="424" width="132.9443359375" height="167"/></g><g transform="translate(10,2) scale(1,1)"><path fill="none" stroke="#000000" d="M 1496 424 L 1628.9443359375 424 L 1628.9443359375 591 L 1496 591 L 1496 424 Z Z" stroke-miterlimit="10"/></g><g transform="translate(10,2) scale(1,1)"><path fill="none" stroke="#000000" d="M 1496 449 L 1628.9443359375 449" stroke-miterlimit="10"/></g><g transform="translate(10,2) scale(1,1)"><path fill="none" stroke="#000000" d="M 1496 577 L 1628.9443359375 577" stroke-miterlimit="10"/></g><g transform="translate(10,2) scale(1,1)"><g><path fill="none" stroke="none"/><text fill="#000000" stroke="none" font-family="Arial" font-size="13px" font-style="normal" font-weight="bold" text-decoration="none" x="1528.14404296875" y="443.5">ArqueoCaja</text></g></g><g transform="translate(10,2) scale(1,1)"><g><path fill="none" stroke="none"/><text fill="#000000" stroke="none" font-family="Arial" font-size="13px" font-style="normal" font-weight="normal" text-decoration="none" x="1501" y="466.5">-Id: String</text></g></g><g transform="translate(10,2) scale(1,1)"><g><path fill="none" stroke="none"/><text fill="#000000" stroke="none" font-family="Arial" font-size="13px" font-style="normal" font-weight="normal" text-decoration="none" x="1501" y="481.5">-FechaInicio: Date</text></g></g><g transform="translate(10,2) scale(1,1)"><g><path fill="none" stroke="none"/><text fill="#000000" stroke="none" font-family="Arial" font-size="13px" font-style="normal" font-weight="normal" text-decoration="none" x="1501" y="496.5">-FechaCierre: Date</text></g></g><g transform="translate(10,2) scale(1,1)"><g><path fill="none" stroke="none"/><text fill="#000000" stroke="none" font-family="Arial" font-size="13px" font-style="normal" font-weight="normal" text-decoration="none" x="1501" y="511.5">-SaldoBase: Long</text></g></g><g transform="translate(10,2) scale(1,1)"><g><path fill="none" stroke="none"/><text fill="#000000" stroke="none" font-family="Arial" font-size="13px" font-style="normal" font-weight="normal" text-decoration="none" x="1501" y="526.5">-SaldoPrevisto: Long</text></g></g><g transform="translate(10,2) scale(1,1)"><g><path fill="none" stroke="none"/><text fill="#000000" stroke="none" font-family="Arial" font-size="13px" font-style="normal" font-weight="normal" text-decoration="none" x="1501" y="541.5">-SaldoReal: Long</text></g></g><g transform="translate(10,2) scale(1,1)"><g><path fill="none" stroke="none"/><text fill="#000000" stroke="none" font-family="Arial" font-size="13px" font-style="normal" font-weight="normal" text-decoration="none" x="1501" y="556.5">-Diferencia: Long</text></g></g><g transform="translate(10,2) scale(1,1)"><g><path fill="none" stroke="none"/><text fill="#000000" stroke="none" font-family="Arial" font-size="13px" font-style="normal" font-weight="normal" text-decoration="none" x="1501" y="571.5">-Observacion: String</text></g></g><g transform="translate(10,2) scale(1,1)"><rect fill="#C0C0C0" stroke="none" x="303" y="263" width="103" height="47" opacity="0.2"/></g><g transform="translate(10,2) scale(1,1)"><rect fill="#ffffff" stroke="none" x="296" y="256" width="103" height="47"/></g><g transform="translate(10,2) scale(1,1)"><path fill="none" stroke="#000000" d="M 296 256 L 399 256 L 399 303 L 296 303 L 296 256 Z Z" stroke-miterlimit="10"/></g><g transform="translate(10,2) scale(1,1)"><path fill="none" stroke="#000000" d="M 296 281 L 399 281" stroke-miterlimit="10"/></g><g transform="translate(10,2) scale(1,1)"><path fill="none" stroke="#000000" d="M 296 291 L 399 291" stroke-miterlimit="10"/></g><g transform="translate(10,2) scale(1,1)"><g><path fill="none" stroke="none"/><text fill="#000000" stroke="none" font-family="Arial" font-size="13px" font-style="normal" font-weight="bold" text-decoration="none" x="325.819580078125" y="275.5">Ingreso</text></g></g><g transform="translate(10,2) scale(1,1)"><rect fill="#C0C0C0" stroke="none" x="407" y="103" width="120.64892578125" height="119" opacity="0.2"/></g><g transform="translate(10,2) scale(1,1)"><rect fill="#ffffff" stroke="none" x="400" y="96" width="120.64892578125" height="119"/></g><g transform="translate(10,2) scale(1,1)"><path fill="none" stroke="#000000" d="M 400 96 L 520.64892578125 96 L 520.64892578125 215 L 400 215 L 400 96 Z Z" stroke-miterlimit="10"/></g><g transform="translate(10,2) scale(1,1)"><path fill="none" stroke="#000000" d="M 400 121 L 520.64892578125 121" stroke-miterlimit="10"/></g><g transform="translate(10,2) scale(1,1)"><path fill="none" stroke="#000000" d="M 400 189 L 520.64892578125 189" stroke-miterlimit="10"/></g><g transform="translate(10,2) scale(1,1)"><g><path fill="none" stroke="none"/><text fill="#000000" stroke="none" font-family="Arial" font-size="13px" font-style="normal" font-weight="bold" text-decoration="none" x="427.09130859375" y="115.5">Movimiento</text></g></g><g transform="translate(10,2) scale(1,1)"><g><path fill="none" stroke="none"/><text fill="#000000" stroke="none" font-family="Arial" font-size="13px" font-style="normal" font-weight="normal" text-decoration="none" x="405" y="138.5">-Id: String</text></g></g><g transform="translate(10,2) scale(1,1)"><g><path fill="none" stroke="none"/><text fill="#000000" stroke="none" font-family="Arial" font-size="13px" font-style="normal" font-weight="normal" text-decoration="none" x="405" y="153.5">-Valor: Long</text></g></g><g transform="translate(10,2) scale(1,1)"><g><path fill="none" stroke="none"/><text fill="#000000" stroke="none" font-family="Arial" font-size="13px" font-style="normal" font-weight="normal" text-decoration="none" x="405" y="168.5">-Descripcion: Long</text></g></g><g transform="translate(10,2) scale(1,1)"><g><path fill="none" stroke="none"/><text fill="#000000" stroke="none" font-family="Arial" font-size="13px" font-style="normal" font-weight="normal" text-decoration="none" x="405" y="183.5">-Fecha: Date</text></g></g><g transform="translate(10,2) scale(1,1)"><path fill="none" stroke="#000000" d="M 216 421 L 111 421" stroke-miterlimit="10"/></g><g transform="translate(10,2) scale(1,1)"><g><path fill="none" stroke="none"/><text fill="#000000" stroke="none" font-family="Arial" font-size="13px" font-style="normal" font-weight="normal" text-decoration="none" x="797" y="602">1</text></g></g><g transform="translate(10,2) scale(1,1)"><path fill="none" stroke="#000000" d="M 318 423 L 432 423" stroke-miterlimit="10"/></g><g transform="translate(10,2) scale(1,1)"><g><path fill="none" stroke="none"/><text fill="#000000" stroke="none" font-family="Arial" font-size="13px" font-style="normal" font-weight="normal" text-decoration="none" x="325" y="418">*</text></g></g><g transform="translate(10,2) scale(1,1)"><g><path fill="none" stroke="none"/><text fill="#000000" stroke="none" font-family="Arial" font-size="13px" font-style="normal" font-weight="normal" text-decoration="none" x="413" y="418">1</text></g></g><g transform="translate(10,2) scale(1,1)"><g><path fill="none" stroke="none"/><text fill="#000000" stroke="none" font-family="Arial" font-size="13px" font-style="normal" font-weight="normal" text-decoration="none" x="797" y="322">1</text></g></g><g transform="translate(10,2) scale(1,1)"><g><path fill="none" stroke="none"/><text fill="#000000" stroke="none" font-family="Arial" font-size="13px" font-style="normal" font-weight="normal" text-decoration="none" x="589" y="354">*</text></g></g><g transform="translate(10,2) scale(1,1)"><path fill="none" stroke="#000000" d="M 862 352 L 862 536" stroke-miterlimit="10"/></g><g transform="translate(10,2) scale(1,1)"><g><path fill="none" stroke="none"/><text fill="#000000" stroke="none" font-family="Arial" font-size="13px" font-style="normal" font-weight="normal" text-decoration="none" x="853" y="530">*</text></g></g><g transform="translate(10,2) scale(1,1)"><g><path fill="none" stroke="none"/><text fill="#000000" stroke="none" font-family="Arial" font-size="13px" font-style="normal" font-weight="normal" text-decoration="none" x="853" y="370">1</text></g></g><g transform="translate(10,2) scale(1,1)"><rect fill="#C0C0C0" stroke="none" x="535" y="255" width="88.45361328125" height="44" opacity="0.2"/></g><g transform="translate(10,2) scale(1,1)"><rect fill="#ffffff" stroke="none" x="528" y="248" width="88.45361328125" height="44"/></g><g transform="translate(10,2) scale(1,1)"><path fill="none" stroke="#000000" d="M 528 248 L 616.45361328125 248 L 616.45361328125 292 L 528 292 L 528 248 Z Z" stroke-miterlimit="10"/></g><g transform="translate(10,2) scale(1,1)"><path fill="none" stroke="#000000" d="M 528 273 L 616.45361328125 273" stroke-miterlimit="10"/></g><g transform="translate(10,2) scale(1,1)"><path fill="none" stroke="#000000" d="M 528 283 L 616.45361328125 283" stroke-miterlimit="10"/></g><g transform="translate(10,2) scale(1,1)"><g><path fill="none" stroke="none"/><text fill="#000000" stroke="none" font-family="Arial" font-size="13px" font-style="normal" font-weight="bold" text-decoration="none" x="551.6318359375" y="267.5">Egreso</text></g></g><g transform="translate(10,2) scale(1,1)"><path fill="none" stroke="#000000" d="M 404 216 L 369 255" stroke-miterlimit="10"/></g><g transform="translate(10,2) scale(1,1)"><path fill="#FFFFFF" stroke="none" d="M 376.3096968638628 234.24985947617623 L 369 255 L 388.841301295825 245.49617114588588"/></g><g transform="translate(10,2) scale(1,1)"><path fill="none" stroke="#000000" d="M 376.3096968638628 234.24985947617623 L 369 255 L 388.841301295825 245.49617114588588 L 376.3096968638628 234.24985947617623" stroke-miterlimit="10"/></g><g transform="translate(10,2) scale(1,1)"><path fill="none" stroke="#000000" d="M 519 216 L 550 247" stroke-miterlimit="10"/></g><g transform="translate(10,2) scale(1,1)"><path fill="#FFFFFF" stroke="none" d="M 529.6746502847517 238.58096448796803 L 550 247 L 541.580964487968 226.6746502847517"/></g><g transform="translate(10,2) scale(1,1)"><path fill="none" stroke="#000000" d="M 529.6746502847517 238.58096448796803 L 550 247 L 541.580964487968 226.6746502847517 L 529.6746502847517 238.58096448796803" stroke-miterlimit="10"/></g><g transform="translate(10,2) scale(1,1)"><path fill="none" stroke="#000000" d="M 808 328 L 712 328 L 712 360 L 579 360" stroke-miterlimit="10"/></g><g transform="translate(10,2) scale(1,1)"><path fill="none" stroke="#000000" d="M 472 216 L 495 335" stroke-miterlimit="10"/></g><g transform="translate(10,2) scale(1,1)"><path fill="#FFFFFF" stroke="none" d="M 482.876895524114 316.64161396345656 L 495 335 L 499.40900987414835 313.44633135798773"/></g><g transform="translate(10,2) scale(1,1)"><path fill="none" stroke="#000000" d="M 482.876895524114 316.64161396345656 L 495 335 L 499.40900987414835 313.44633135798773 L 482.876895524114 316.64161396345656" stroke-miterlimit="10"/></g><g transform="translate(10,2) scale(1,1)"><g><path fill="none" stroke="none"/><text fill="#000000" stroke="none" font-family="Arial" font-size="13px" font-style="normal" font-weight="normal" text-decoration="none" x="325" y="594">*</text></g></g><g transform="translate(10,2) scale(1,1)"><g><path fill="none" stroke="none"/><text fill="#000000" stroke="none" font-family="Arial" font-size="13px" font-style="normal" font-weight="normal" text-decoration="none" x="965" y="578">*</text></g></g><g transform="translate(10,2) scale(1,1)"><g><path fill="none" stroke="none"/><text fill="#000000" stroke="none" font-family="Arial" font-size="13px" font-style="normal" font-weight="normal" text-decoration="none" x="1341" y="394">1</text></g></g><g transform="translate(10,2) scale(1,1)"><g><path fill="none" stroke="none"/><text fill="#000000" stroke="none" font-family="Arial" font-size="13px" font-style="normal" font-weight="normal" text-decoration="none" x="1205" y="394">1</text></g></g><g transform="translate(10,2) scale(1,1)"><g><path fill="none" stroke="none"/><text fill="#000000" stroke="none" font-family="Arial" font-size="13px" font-style="normal" font-weight="normal" text-decoration="none" x="1477" y="450">*</text></g></g><g transform="translate(10,2) scale(1,1)"><path fill="none" stroke="#000000" d="M 1550 423 L 1504 104 L 1376 40 L 984 8 L 696 48 L 640 270 L 617 270" stroke-miterlimit="10"/></g><g transform="translate(10,2) scale(1,1)"><path fill="none" stroke="#000000" d="M 1495 531 L 1064 688 L 440 696 L 353 304" stroke-miterlimit="10"/></g><g transform="translate(10,2) scale(1,1)"><g><path fill="none" stroke="none"/><text fill="#000000" stroke="none" font-family="Arial" font-size="13px" font-style="normal" font-weight="normal" text-decoration="none" x="365" y="322">*</text></g></g><g transform="translate(10,2) scale(1,1)"><g><path fill="none" stroke="none"/><text fill="#000000" stroke="none" font-family="Arial" font-size="13px" font-style="normal" font-weight="normal" text-decoration="none" x="621" y="266">*</text></g></g><g transform="translate(10,2) scale(1,1)"><g><path fill="none" stroke="none"/><text fill="#000000" stroke="none" font-family="Arial" font-size="13px" font-style="normal" font-weight="normal" text-decoration="none" x="1557" y="418">1</text></g></g><g transform="translate(10,2) scale(1,1)"><g><path fill="none" stroke="none"/><text fill="#000000" stroke="none" font-family="Arial" font-size="13px" font-style="normal" font-weight="normal" text-decoration="none" x="1485" y="522">1</text></g></g><g transform="translate(10,2) scale(1,1)"><rect fill="#C0C0C0" stroke="none" x="727" y="79" width="124.984375" height="87" opacity="0.2"/></g><g transform="translate(10,2) scale(1,1)"><rect fill="#ffffff" stroke="none" x="720" y="72" width="124.984375" height="87"/></g><g transform="translate(10,2) scale(1,1)"><path fill="none" stroke="#000000" d="M 720 72 L 844.984375 72 L 844.984375 159 L 720 159 L 720 72 Z Z" stroke-miterlimit="10"/></g><g transform="translate(10,2) scale(1,1)"><path fill="none" stroke="#000000" d="M 720 97 L 844.984375 97" stroke-miterlimit="10"/></g><g transform="translate(10,2) scale(1,1)"><path fill="none" stroke="#000000" d="M 720 150 L 844.984375 150" stroke-miterlimit="10"/></g><g transform="translate(10,2) scale(1,1)"><g><path fill="none" stroke="none"/><text fill="#000000" stroke="none" font-family="Arial" font-size="13px" font-style="normal" font-weight="bold" text-decoration="none" x="760.094482421875" y="91.5">Usuario</text></g></g><g transform="translate(10,2) scale(1,1)"><g><path fill="none" stroke="none"/><text fill="#000000" stroke="none" font-family="Arial" font-size="13px" font-style="normal" font-weight="normal" text-decoration="none" x="725" y="114.5">-Correo: String</text></g></g><g transform="translate(10,2) scale(1,1)"><g><path fill="none" stroke="none"/><text fill="#000000" stroke="none" font-family="Arial" font-size="13px" font-style="normal" font-weight="normal" text-decoration="none" x="725" y="129.5">-Contraseña: String</text></g></g><g transform="translate(10,2) scale(1,1)"><g><path fill="none" stroke="none"/><text fill="#000000" stroke="none" font-family="Arial" font-size="13px" font-style="normal" font-weight="normal" text-decoration="none" x="725" y="144.5">-Usuario: String</text></g></g><g transform="translate(10,2) scale(1,1)"><g><path fill="none" stroke="none"/><text fill="#000000" stroke="none" font-family="Arial" font-size="13px" font-style="normal" font-weight="normal" text-decoration="none" x="1381" y="322">1</text></g></g><g transform="translate(10,2) scale(1,1)"><g><path fill="none" stroke="none"/><text fill="#000000" stroke="none" font-family="Arial" font-size="13px" font-style="normal" font-weight="normal" text-decoration="none" x="853" y="106">1</text></g></g><g transform="translate(10,2) scale(1,1)"><path fill="none" stroke="#000000" d="M 1506 592 L 1416 728 L 1152 792 L 128 704 L 192 272 L 431 360" stroke-miterlimit="10"/></g><g transform="translate(10,2) scale(1,1)"><g><path fill="none" stroke="none"/><text fill="#000000" stroke="none" font-family="Arial" font-size="13px" font-style="normal" font-weight="normal" text-decoration="none" x="1509" y="610">1</text></g></g><g transform="translate(10,2) scale(1,1)"><g><path fill="none" stroke="none"/><text fill="#000000" stroke="none" font-family="Arial" font-size="13px" font-style="normal" font-weight="normal" text-decoration="none" x="413" y="354">*</text></g></g><g transform="translate(10,2) scale(1,1)"><g><path fill="none" stroke="none"/><text fill="#000000" stroke="none" font-family="Arial" font-size="13px" font-style="normal" font-weight="normal" text-decoration="none" x="117" y="418">1</text></g></g><g transform="translate(10,2) scale(1,1)"><g><path fill="none" stroke="none"/><text fill="#000000" stroke="none" font-family="Arial" font-size="13px" font-style="normal" font-weight="normal" text-decoration="none" x="37" y="482">1</text></g></g><g transform="translate(10,2) scale(1,1)"><rect fill="#C0C0C0" stroke="none" x="223" y="535" width="103" height="87" opacity="0.2"/></g><g transform="translate(10,2) scale(1,1)"><rect fill="#ffffff" stroke="none" x="216" y="528" width="103" height="87"/></g><g transform="translate(10,2) scale(1,1)"><path fill="none" stroke="#000000" d="M 216 528 L 319 528 L 319 615 L 216 615 L 216 528 Z Z" stroke-miterlimit="10"/></g><g transform="translate(10,2) scale(1,1)"><path fill="none" stroke="#000000" d="M 216 553 L 319 553" stroke-miterlimit="10"/></g><g transform="translate(10,2) scale(1,1)"><path fill="none" stroke="#000000" d="M 216 591 L 319 591" stroke-miterlimit="10"/></g><g transform="translate(10,2) scale(1,1)"><g><path fill="none" stroke="none"/><text fill="#000000" stroke="none" font-family="Arial" font-size="13px" font-style="normal" font-weight="bold" text-decoration="none" x="235.707763671875" y="547.5">DetalleCita</text></g></g><g transform="translate(10,2) scale(1,1)"><g><path fill="none" stroke="none"/><text fill="#000000" stroke="none" font-family="Arial" font-size="13px" font-style="normal" font-weight="normal" text-decoration="none" x="221" y="570.5">-Id: String</text></g></g><g transform="translate(10,2) scale(1,1)"><g><path fill="none" stroke="none"/><text fill="#000000" stroke="none" font-family="Arial" font-size="13px" font-style="normal" font-weight="normal" text-decoration="none" x="221" y="585.5">-ValorSubTotal</text></g></g><g transform="translate(10,2) scale(1,1)"><path fill="none" stroke="#000000" d="M 808 576 L 319 576" stroke-miterlimit="10"/></g><g transform="translate(10,2) scale(1,1)"><path fill="none" stroke="#000000" d="M 55 463 L 55 568 L 216 568" stroke-miterlimit="10"/></g><g transform="translate(10,2) scale(1,1)"><rect fill="#C0C0C0" stroke="none" x="1287" y="295" width="96" height="88" opacity="0.2"/></g><g transform="translate(10,2) scale(1,1)"><rect fill="#ffffff" stroke="none" x="1280" y="288" width="96" height="88"/></g><g transform="translate(10,2) scale(1,1)"><path fill="none" stroke="#000000" d="M 1280 288 L 1376 288 L 1376 376 L 1280 376 L 1280 288 Z Z" stroke-miterlimit="10"/></g><g transform="translate(10,2) scale(1,1)"><path fill="none" stroke="#000000" d="M 1280 313 L 1376 313" stroke-miterlimit="10"/></g><g transform="translate(10,2) scale(1,1)"><path fill="none" stroke="#000000" d="M 1280 323 L 1376 323" stroke-miterlimit="10"/></g><g transform="translate(10,2) scale(1,1)"><g><path fill="none" stroke="none"/><text fill="#000000" stroke="none" font-family="Arial" font-size="13px" font-style="normal" font-weight="bold" text-decoration="none" x="1308.852294921875" y="307.5">Cajero</text></g></g><g transform="translate(10,2) scale(1,1)"><rect fill="#C0C0C0" stroke="none" x="1151" y="295" width="104" height="88" opacity="0.2"/></g><g transform="translate(10,2) scale(1,1)"><rect fill="#ffffff" stroke="none" x="1144" y="288" width="104" height="88"/></g><g transform="translate(10,2) scale(1,1)"><path fill="none" stroke="#000000" d="M 1144 288 L 1248 288 L 1248 376 L 1144 376 L 1144 288 Z Z" stroke-miterlimit="10"/></g><g transform="translate(10,2) scale(1,1)"><path fill="none" stroke="#000000" d="M 1144 313 L 1248 313" stroke-miterlimit="10"/></g><g transform="translate(10,2) scale(1,1)"><path fill="none" stroke="#000000" d="M 1144 323 L 1248 323" stroke-miterlimit="10"/></g><g transform="translate(10,2) scale(1,1)"><g><path fill="none" stroke="none"/><text fill="#000000" stroke="none" font-family="Arial" font-size="13px" font-style="normal" font-weight="bold" text-decoration="none" x="1172.87548828125" y="307.5">Barbero</text></g></g><g transform="translate(10,2) scale(1,1)"><path fill="none" stroke="#000000" d="M 1290 241 L 1309 287" stroke-miterlimit="10"/></g><g transform="translate(10,2) scale(1,1)"><path fill="#FFFFFF" stroke="none" d="M 1293.4592015820497 271.428115575415 L 1309 287 L 1309.0219811260913 265.00001098113694"/></g><g transform="translate(10,2) scale(1,1)"><path fill="none" stroke="#000000" d="M 1293.4592015820497 271.428115575415 L 1309 287 L 1309.0219811260913 265.00001098113694 L 1293.4592015820497 271.428115575415" stroke-miterlimit="10"/></g><g transform="translate(10,2) scale(1,1)"><path fill="none" stroke="#000000" d="M 1239 241 L 1216 264 L 1209 287" stroke-miterlimit="10"/></g><g transform="translate(10,2) scale(1,1)"><path fill="#FFFFFF" stroke="none" d="M 1206.863690291676 265.1039688338247 L 1209 287 L 1222.972233037204 270.00656879985496"/></g><g transform="translate(10,2) scale(1,1)"><path fill="none" stroke="#000000" d="M 1206.863690291676 265.1039688338247 L 1209 287 L 1222.972233037204 270.00656879985496 L 1206.863690291676 265.1039688338247" stroke-miterlimit="10"/></g><g transform="translate(10,2) scale(1,1)"><path fill="none" stroke="#000000" d="M 1336 376 L 1336 456 L 1496 456" stroke-miterlimit="10"/></g><g transform="translate(10,2) scale(1,1)"><path fill="none" stroke="#000000" d="M 1196 376 L 1196 583 L 963 583" stroke-miterlimit="10"/></g><g transform="translate(10,2) scale(1,1)"><path fill="none" stroke="#000000" d="M 846 110 L 912 104 L 984 32 L 1312 64 L 1472 144 L 1480 320 L 1377 328" stroke-miterlimit="10"/></g><g transform="translate(10,2) scale(1,1)"><path fill="none" stroke="#000000" d="M 800 160 L 843 271" stroke-miterlimit="10"/></g><g transform="translate(10,2) scale(1,1)"><g><path fill="none" stroke="none"/><text fill="#000000" stroke="none" font-family="Arial" font-size="13px" font-style="normal" font-weight="normal" text-decoration="none" x="829" y="266">1</text></g></g><g transform="translate(10,2) scale(1,1)"><g><path fill="none" stroke="none"/><text fill="#000000" stroke="none" font-family="Arial" font-size="13px" font-style="normal" font-weight="normal" text-decoration="none" x="789" y="178">1</text></g></g></g></svg>